HIERARCHY
ROOT hip
{
  OFFSET 0 90.174 2.4664
  CHANNELS 6 Xposition Yposition Zposition Zrotation Xrotation Yrotation
  JOINT abdomen
  {
    OFFSET 0 -1.186 -1.5018
    CHANNELS 6 Xposition Yposition Zposition Zrotation Xrotation Yrotation
    JOINT abdomen2
    {
      OFFSET 0 9.964 0.2134
      CHANNELS 6 Xposition Yposition Zposition Zrotation Xrotation Yrotation
      JOINT chest
      {
        OFFSET 0 13.134 -3.2573
        CHANNELS 6 Xposition Yposition Zposition Zrotation Xrotation Yrotation
        JOINT neck
        {
          OFFSET 0 20.686 -1.6905
          CHANNELS 6 Xposition Yposition Zposition Zrotation Xrotation Yrotation
          JOINT head
          {
            OFFSET 0 7.238 -0.1237
            CHANNELS 6 Xposition Yposition Zposition Zrotation Xrotation Yrotation
            End Site
            {
              OFFSET 0 0 0
            }
          }
        }
        JOINT lCollar
        {
          OFFSET 1.7069 20.075 5.0056
          CHANNELS 6 Xposition Yposition Zposition Zrotation Xrotation Yrotation
          JOINT lShldr
          {
            OFFSET 13.6458 -0.047 -4.849
            CHANNELS 6 Xposition Yposition Zposition Zrotation Xrotation Yrotation
            JOINT lForeArm
            {
              OFFSET 28.3255 -0.9759 2.2888
              CHANNELS 6 Xposition Yposition Zposition Zrotation Xrotation Yrotation
              JOINT lHand
              {
                OFFSET 22.1583 -0.53 10.8316
                CHANNELS 6 Xposition Yposition Zposition Zrotation Xrotation Yrotation
                JOINT lThumb1
                {
                  OFFSET 0.786 0.112 2.5817
                  CHANNELS 6 Xposition Yposition Zposition Zrotation Xrotation Yrotation
                  JOINT lThumb2
                  {
                    OFFSET 0.3601 -0.878 4.2331
                    CHANNELS 6 Xposition Yposition Zposition Zrotation Xrotation Yrotation
                    JOINT lThumb2_End
                    {
                      OFFSET 1.8127 -1.216 2.2227
                      CHANNELS 6 Xposition Yposition Zposition Zrotation Xrotation Yrotation
                      End Site
                      {
                        OFFSET 0.0181 -0.0122 0.0222
                      }
                    }
                  }
                }
                JOINT lCarpal1
                {
                  OFFSET 0.9571 1.114 1.7695
                  CHANNELS 6 Xposition Yposition Zposition Zrotation Xrotation Yrotation
                  JOINT lIndex1
                  {
                    OFFSET 4.1246 0.487 4.1451
                    CHANNELS 6 Xposition Yposition Zposition Zrotation Xrotation Yrotation
                    JOINT lIndex2
                    {
                      OFFSET 3.4052 -1.454 2.7682
                      CHANNELS 6 Xposition Yposition Zposition Zrotation Xrotation Yrotation
                      JOINT lIndex2_End
                      {
                        OFFSET 1.4531 -1.795 1.2713
                        CHANNELS 6 Xposition Yposition Zposition Zrotation Xrotation Yrotation
                        End Site
                        {
                          OFFSET 0.0145 -0.0179 0.0127
                        }
                      }
                    }
                  }
                  JOINT lMid1
                  {
                    OFFSET 5.6954 0.21 2.1184
                    CHANNELS 6 Xposition Yposition Zposition Zrotation Xrotation Yrotation
                    JOINT lMid2
                    {
                      OFFSET 3.9766 -1.54 2.3863
                      CHANNELS 6 Xposition Yposition Zposition Zrotation Xrotation Yrotation
                      JOINT lMid2_End
                      {
                        OFFSET 1.4042 -1.926 1.125
                        CHANNELS 6 Xposition Yposition Zposition Zrotation Xrotation Yrotation
                        End Site
                        {
                          OFFSET 0.014 -0.0193 0.0113
                        }
                      }
                    }
                  }
                }
                JOINT lCarpal2
                {
                  OFFSET 2.0956 0.66 -0.3894
                  CHANNELS 6 Xposition Yposition Zposition Zrotation Xrotation Yrotation
                  JOINT lRing1
                  {
                    OFFSET 5.0395 -0.09 2.4971
                    CHANNELS 6 Xposition Yposition Zposition Zrotation Xrotation Yrotation
                    JOINT lRing2
                    {
                      OFFSET 3.7921 -1.552 1.4806
                      CHANNELS 6 Xposition Yposition Zposition Zrotation Xrotation Yrotation
                      JOINT lRing2_End
                      {
                        OFFSET 1.4655 -1.808 0.9609
                        CHANNELS 6 Xposition Yposition Zposition Zrotation Xrotation Yrotation
                        End Site
                        {
                          OFFSET 0.0147 -0.0181 0.0096
                        }
                      }
                    }
                  }
                  JOINT lPinky1
                  {
                    OFFSET 4.9141 -1.269 0.3591
                    CHANNELS 6 Xposition Yposition Zposition Zrotation Xrotation Yrotation
                    JOINT lPinky2
                    {
                      OFFSET 3.1477 -1.685 0.8462
                      CHANNELS 6 Xposition Yposition Zposition Zrotation Xrotation Yrotation
                      JOINT lPinky2_End
                      {
                        OFFSET 0.8055 -1.585 0.7955
                        CHANNELS 6 Xposition Yposition Zposition Zrotation Xrotation Yrotation
                        End Site
                        {
                          OFFSET 0.0081 -0.0158 0.008
                        }
                      }
                    }
                  }
                }
              }
            }
          }
        }
        JOINT rCollar
        {
          OFFSET -1.7069 20.075 5.0056
          CHANNELS 6 Xposition Yposition Zposition Zrotation Xrotation Yrotation
          JOINT rShldr
          {
            OFFSET -13.6458 -0.047 -4.849
            CHANNELS 6 Xposition Yposition Zposition Zrotation Xrotation Yrotation
            JOINT rForeArm
            {
              OFFSET -28.3255 -0.9759 2.2888
              CHANNELS 6 Xposition Yposition Zposition Zrotation Xrotation Yrotation
              JOINT rHand
              {
                OFFSET -22.1583 -0.53 10.8316
                CHANNELS 6 Xposition Yposition Zposition Zrotation Xrotation Yrotation
                JOINT rThumb1
                {
                  OFFSET -0.786 0.112 2.5817
                  CHANNELS 6 Xposition Yposition Zposition Zrotation Xrotation Yrotation
                  JOINT rThumb2
                  {
                    OFFSET -0.3601 -0.878 4.2331
                    CHANNELS 6 Xposition Yposition Zposition Zrotation Xrotation Yrotation
                    JOINT rThumb2_End
                    {
                      OFFSET -1.8127 -1.216 2.2227
                      CHANNELS 6 Xposition Yposition Zposition Zrotation Xrotation Yrotation
                      End Site
                      {
                        OFFSET -0.0181 -0.0122 0.0222
                      }
                    }
                  }
                }
                JOINT rCarpal1
                {
                  OFFSET -0.9571 1.114 1.7695
                  CHANNELS 6 Xposition Yposition Zposition Zrotation Xrotation Yrotation
                  JOINT rIndex1
                  {
                    OFFSET -4.1246 0.487 4.1451
                    CHANNELS 6 Xposition Yposition Zposition Zrotation Xrotation Yrotation
                    JOINT rIndex2
                    {
                      OFFSET -3.4052 -1.454 2.7682
                      CHANNELS 6 Xposition Yposition Zposition Zrotation Xrotation Yrotation
                      JOINT rIndex2_End
                      {
                        OFFSET -1.4531 -1.795 1.2713
                        CHANNELS 6 Xposition Yposition Zposition Zrotation Xrotation Yrotation
                        End Site
                        {
                          OFFSET -0.0145 -0.018 0.0127
                        }
                      }
                    }
                  }
                  JOINT rMid1
                  {
                    OFFSET -5.6954 0.21 2.1184
                    CHANNELS 6 Xposition Yposition Zposition Zrotation Xrotation Yrotation
                    JOINT rMid2
                    {
                      OFFSET -3.9766 -1.54 2.3863
                      CHANNELS 6 Xposition Yposition Zposition Zrotation Xrotation Yrotation
                      JOINT rMid2_End
                      {
                        OFFSET -1.4042 -1.926 1.125
                        CHANNELS 6 Xposition Yposition Zposition Zrotation Xrotation Yrotation
                        End Site
                        {
                          OFFSET -0.014 -0.0193 0.0113
                        }
                      }
                    }
                  }
                }
                JOINT rCarpal2
                {
                  OFFSET -2.0956 0.66 -0.3894
                  CHANNELS 6 Xposition Yposition Zposition Zrotation Xrotation Yrotation
                  JOINT rRing1
                  {
                    OFFSET -5.0395 -0.09 2.4971
                    CHANNELS 6 Xposition Yposition Zposition Zrotation Xrotation Yrotation
                    JOINT rRing2
                    {
                      OFFSET -3.7921 -1.552 1.4806
                      CHANNELS 6 Xposition Yposition Zposition Zrotation Xrotation Yrotation
                      JOINT rRing2_End
                      {
                        OFFSET -1.4655 -1.808 0.9609
                        CHANNELS 6 Xposition Yposition Zposition Zrotation Xrotation Yrotation
                        End Site
                        {
                          OFFSET -0.0147 -0.0181 0.0096
                        }
                      }
                    }
                  }
                  JOINT rPinky1
                  {
                    OFFSET -4.9141 -1.269 0.3592
                    CHANNELS 6 Xposition Yposition Zposition Zrotation Xrotation Yrotation
                    JOINT rPinky2
                    {
                      OFFSET -3.1477 -1.685 0.8462
                      CHANNELS 6 Xposition Yposition Zposition Zrotation Xrotation Yrotation
                      JOINT rPinky2_End
                      {
                        OFFSET -0.8055 -1.585 0.7955
                        CHANNELS 6 Xposition Yposition Zposition Zrotation Xrotation Yrotation
                        End Site
                        {
                          OFFSET -0.0081 -0.0158 0.008
                        }
                      }
                    }
                  }
                }
              }
            }
          }
        }
      }
    }
  }
  JOINT lThigh
  {
    OFFSET 8.367 -8.2066 0.5982
    CHANNELS 6 Xposition Yposition Zposition Zrotation Xrotation Yrotation
    JOINT lShin
    {
      OFFSET 2.1923 -43.463 -0.4932
      CHANNELS 6 Xposition Yposition Zposition Zrotation Xrotation Yrotation
      JOINT lFoot
      {
        OFFSET 0.7333 -45.8593 -2.6451
        CHANNELS 6 Xposition Yposition Zposition Zrotation Xrotation Yrotation
        End Site
        {
          OFFSET 2.6618 -4.2699 12.3931
        }
      }
    }
  }
  JOINT rThigh
  {
    OFFSET -8.367 -8.2066 0.5982
    CHANNELS 6 Xposition Yposition Zposition Zrotation Xrotation Yrotation
    JOINT rShin
    {
      OFFSET -2.1923 -43.463 -0.4931
      CHANNELS 6 Xposition Yposition Zposition Zrotation Xrotation Yrotation
      JOINT rFoot
      {
        OFFSET -0.7333 -45.8593 -2.6451
        CHANNELS 6 Xposition Yposition Zposition Zrotation Xrotation Yrotation
        End Site
        {
          OFFSET -2.6618 -4.2699 12.3931
        }
      }
    }
  }
}
MOTION
Frames:	4
Frame Time:	0.0333333
0 90.174 2.4664 0 0 -0 0 -1.186 -1.5018 0 0 -0 0 9.964 0.2134 0 0 -0 0 13.134 -3.2573 0 0 -0 0 20.686 -1.6905 0 0 -0 0 7.238 -0.1237 0 0 -0 1.7069 20.075 5.0056 0 0 -0 13.6458 -0.047 -4.849 1.66051 0.0835086 5.75766 28.3255 -0.9759 2.2888 -0.0175111 0.895433 15.7816 22.1583 -0.53 10.8316 7.95139e-016 -1.98785e-016 -0 0.786 0.112 2.5817 5.46658e-016 -3.97569e-016 -0 0.3601 -0.878 4.2331 5.96354e-016 0 -0 1.8127 -1.216 2.2227 3.97569e-016 1.98785e-016 9.54166e-015 0.9571 1.114 1.7695 1.49089e-016 -3.97569e-016 -0 4.1246 0.487 4.1451 6.4605e-016 0 3.18055e-015 3.4052 -1.454 2.7682 5.96354e-016 0 3.18055e-015 1.4531 -1.795 1.2713 8.94531e-016 -1.98785e-016 6.36111e-015 5.6954 0.21 2.1184 6.4605e-016 0 3.18055e-015 3.9766 -1.54 2.3863 5.96354e-016 0 3.18055e-015 1.4042 -1.926 1.125 8.94531e-016 -1.98785e-016 6.36111e-015 2.0956 0.66 -0.3894 1.49089e-016 -3.97569e-016 -0 5.0395 -0.09 2.4971 6.4605e-016 0 3.18055e-015 3.7921 -1.552 1.4806 5.96354e-016 0 3.18055e-015 1.4655 -1.808 0.9609 8.94531e-016 -1.98785e-016 6.36111e-015 4.9141 -1.269 0.3591 6.4605e-016 0 3.18055e-015 3.1477 -1.685 0.8462 5.96354e-016 0 3.18055e-015 0.8055 -1.585 0.7955 8.94531e-016 -1.98785e-016 6.36111e-015 -1.7069 20.075 5.0056 0 0 -0 -13.6458 -0.047 -4.849 -1.4496 0.0636048 -5.0245 -28.3255 -0.9759 2.2888 -1.74811 1.20616 -16.8394 -22.1583 -0.53 10.8316 -1.19271e-015 1.98785e-016 -3.18055e-015 -0.786 0.112 2.5817 -3.97569e-016 1.98785e-016 -3.18055e-015 -0.3601 -0.878 4.2331 -2.98177e-016 1.98785e-016 -3.18055e-015 -1.8127 -1.216 2.2227 -2.98177e-016 3.97569e-016 -0 -0.9571 1.114 1.7695 4.96962e-016 0 -6.36111e-015 -4.1246 0.487 4.1451 -9.93923e-017 3.97569e-016 -0 -3.4052 -1.454 2.7682 -8.94531e-016 5.96354e-016 -0 -1.4531 -1.795 1.2713 -3.97569e-016 3.97569e-016 -0 -5.6954 0.21 2.1184 -9.93923e-017 3.97569e-016 -0 -3.9766 -1.54 2.3863 -8.94531e-016 5.96354e-016 -0 -1.4042 -1.926 1.125 -3.97569e-016 3.97569e-016 -0 -2.0956 0.66 -0.3894 4.96962e-016 0 -6.36111e-015 -5.0395 -0.09 2.4971 -9.93923e-017 3.97569e-016 -0 -3.7921 -1.552 1.4806 -8.94531e-016 5.96354e-016 -0 -1.4655 -1.808 0.9609 -3.97569e-016 3.97569e-016 -0 -4.9141 -1.269 0.3592 -9.93923e-017 3.97569e-016 -0 -3.1477 -1.685 0.8462 -8.94531e-016 5.96354e-016 -0 -0.8055 -1.585 0.7955 -3.97569e-016 3.97569e-016 -0 8.367 -8.2066 0.5982 -4.66115 -1.03232 0.120763 2.1923 -43.463 -0.4932 0.00990601 1.55097 0.177175 0.7333 -45.8593 -2.6451 4.65196 -0.54114 -0.255042 -8.367 -8.2066 0.5982 4.66115 -1.03222 -0.120763 -2.1923 -43.463 -0.4931 -0.00990459 1.5509 -0.177176 -0.7333 -45.8593 -2.6451 -4.65196 -0.541171 0.255041 
0.973787 15.2502 5.7884 -170.689 -78.377 -1.54118 0 -1.186 -1.5018 -0.0740633 -5.18733 -0.308702 4.44089e-016 9.964 0.2134 -0.177429 -10.3742 -0.62806 -8.88178e-016 13.134 -3.2573 -0.177427 -10.3742 -0.628053 0 20.686 -1.6905 0.115758 0.292922 0.0940725 0 7.238 -0.1237 7.70068e-007 0.140072 -1.87455e-007 1.7069 20.075 5.0056 16.0481 -0.392421 -9.77225 13.6458 -0.047 -4.849 -18.5084 -17.8528 -29.8302 28.3255 -0.9759 2.2888 3.63028 6.5847 -41.7322 22.1583 -0.53 10.8316 62.1052 -18.7895 12.2033 0.786 0.112 2.5817 7.95139e-016 -6.41081e-015 -0 0.3601 -0.878 4.2331 7.95139e-016 -3.52843e-015 -3.18055e-015 1.8127 -1.216 2.2227 8.94531e-016 -3.97569e-016 -6.36111e-015 0.9571 1.114 1.7695 -0 -6.21202e-015 -0 4.1246 0.487 4.1451 5.96354e-016 -3.40419e-015 -0 3.4052 -1.454 2.7682 8.94531e-016 -1.73937e-016 -6.36111e-015 1.4531 -1.795 1.2713 -9.93923e-017 2.70844e-015 -3.18055e-015 5.6954 0.21 2.1184 5.96354e-016 -3.40419e-015 -0 3.9766 -1.54 2.3863 8.94531e-016 -1.73937e-016 -6.36111e-015 1.4042 -1.926 1.125 -9.93923e-017 2.70844e-015 -3.18055e-015 2.0956 0.66 -0.3894 -0 -6.21202e-015 -0 5.0395 -0.09 2.4971 5.96354e-016 -3.40419e-015 -0 3.7921 -1.552 1.4806 8.94531e-016 -1.73937e-016 -6.36111e-015 1.4655 -1.808 0.9609 -9.93923e-017 2.70844e-015 -3.18055e-015 4.9141 -1.269 0.3591 5.96354e-016 -3.40419e-015 -0 3.1477 -1.685 0.8462 8.94531e-016 -1.73937e-016 -6.36111e-015 0.8055 -1.585 0.7955 -9.93923e-017 2.70844e-015 -3.18055e-015 -1.7069 20.075 5.0056 20.1006 0.0196446 -1.51611 -13.6458 -0.047 -4.849 7.93172 8.92981 43.8824 -28.3255 -0.9759 2.2888 -13.0138 -15.929 15.9 -22.1583 -0.53 10.8316 -62.033 -18.6847 -12.8536 -0.786 0.112 2.5817 4.05578e-007 1.27597e-007 9.17798e-007 -0.3601 -0.878 4.2331 -6.62027e-007 -9.36809e-007 -9.96968e-007 -1.8127 -1.216 2.2227 1.4913e-007 -6.81614e-007 8.38628e-007 -0.9571 1.114 1.7695 2.38542e-015 7.95139e-016 -6.36111e-015 -4.1246 0.487 4.1451 4.05578e-007 1.27597e-007 9.17798e-007 -3.4052 -1.454 2.7682 -6.62027e-007 -9.36809e-007 -9.96968e-007 -1.4531 -1.795 1.2713 1.4913e-007 -6.81614e-007 8.38628e-007 -5.6954 0.21 2.1184 4.05578e-007 1.27597e-007 9.17798e-007 -3.9766 -1.54 2.3863 -6.62027e-007 -9.36809e-007 -9.96968e-007 -1.4042 -1.926 1.125 1.4913e-007 -6.81614e-007 8.38628e-007 -2.0956 0.66 -0.3894 2.38542e-015 7.95139e-016 -6.36111e-015 -5.0395 -0.09 2.4971 4.05578e-007 1.27597e-007 9.17798e-007 -3.7921 -1.552 1.4806 -6.62027e-007 -9.36809e-007 -9.96968e-007 -1.4655 -1.808 0.9609 1.4913e-007 -6.81614e-007 8.38628e-007 -4.9141 -1.269 0.3592 4.05578e-007 1.27597e-007 9.17798e-007 -3.1477 -1.685 0.8462 -6.62027e-007 -9.36809e-007 -9.96968e-007 -0.8055 -1.585 0.7955 1.4913e-007 -6.81614e-007 8.38628e-007 8.367 -8.2066 0.5982 26.7188 -55.974 44.7277 2.1923 -43.463 -0.4932 -4.14542 39.6668 3.10127 0.7333 -45.8593 -2.6451 16.1512 60.5187 -18.502 -8.367 -8.2066 0.5982 -28.6303 -56.051 -46.4563 -2.1923 -43.463 -0.4931 4.21415 42.0127 -2.70288 -0.7333 -45.8593 -2.6451 -15.9571 60.1787 18.5774 
0.771959 17.9228 4.44114 178.468 -76.74 -1.20172 -1.11022e-016 -1.186 -1.5018 -0.0749802 -4.62153 -0.288433 0 9.964 0.2134 -0.174244 -9.24255 -0.585831 0 13.134 -3.2573 -0.174244 -9.24256 -0.58583 0 20.686 -1.6905 0.173559 0.504609 0.0191731 -2.22045e-016 7.238 -0.1237 -1.0476e-007 0.0266243 2.00043e-007 1.7069 20.075 5.0056 14.1019 0.902326 -10.8494 13.6458 -0.047 -4.849 -16.4318 -17.3599 -27.1176 28.3255 -0.9759 2.2888 3.12421 6.97225 -36.6251 22.1583 -0.53 10.8316 58.0196 -18.5124 9.71474 0.786 0.112 2.5817 -4.98492e-007 6.87622e-007 7.3099e-008 0.3601 -0.878 4.2331 -2.00544e-006 -1.23796e-006 5.44229e-006 1.8127 -1.216 2.2227 -1.24354e-006 -6.83796e-008 -5.55967e-006 0.9571 1.114 1.7695 -2.20695e-032 3.97569e-016 3.18055e-015 4.1246 0.487 4.1451 -4.98492e-007 6.87622e-007 7.3099e-008 3.4052 -1.454 2.7682 -2.00544e-006 -1.23796e-006 5.44229e-006 1.4531 -1.795 1.2713 -1.24354e-006 -6.83796e-008 -5.55967e-006 5.6954 0.21 2.1184 -4.98492e-007 6.87622e-007 7.3099e-008 3.9766 -1.54 2.3863 -2.00544e-006 -1.23796e-006 5.44229e-006 1.4042 -1.926 1.125 -1.24354e-006 -6.83796e-008 -5.55967e-006 2.0956 0.66 -0.3894 -2.20695e-032 3.97569e-016 3.18055e-015 5.0395 -0.09 2.4971 -4.98492e-007 6.87622e-007 7.3099e-008 3.7921 -1.552 1.4806 -2.00544e-006 -1.23796e-006 5.44229e-006 1.4655 -1.808 0.9609 -1.24354e-006 -6.83796e-008 -5.55967e-006 4.9141 -1.269 0.3591 -4.98492e-007 6.87622e-007 7.3099e-008 3.1477 -1.685 0.8462 -2.00544e-006 -1.23796e-006 5.44229e-006 0.8055 -1.585 0.7955 -1.24354e-006 -6.83796e-008 -5.55967e-006 -1.7069 20.075 5.0056 19.7005 0.708912 -0.603679 -13.6458 -0.047 -4.849 7.71134 8.7524 40.1369 -28.3255 -0.9759 2.2888 -12.7362 -15.1063 12.9082 -22.1583 -0.53 10.8316 -57.7625 -17.9072 -10.6166 -0.786 0.112 2.5817 1.59028e-015 3.18055e-015 1.27222e-014 -0.3601 -0.878 4.2331 -3.18055e-015 -1.59028e-015 1.27222e-014 -1.8127 -1.216 2.2227 -8.05554e-007 2.60057e-007 -1.108e-007 -0.9571 1.114 1.7695 -5.29669e-031 3.18055e-015 9.54166e-015 -4.1246 0.487 4.1451 -1.59028e-015 1.59028e-015 2.22639e-014 -3.4052 -1.454 2.7682 2.64834e-031 -1.59028e-015 9.54166e-015 -1.4531 -1.795 1.2713 -8.05554e-007 2.60057e-007 -1.108e-007 -5.6954 0.21 2.1184 -1.59028e-015 1.59028e-015 2.22639e-014 -3.9766 -1.54 2.3863 2.64834e-031 -1.59028e-015 9.54166e-015 -1.4042 -1.926 1.125 -8.05554e-007 2.60057e-007 -1.108e-007 -2.0956 0.66 -0.3894 -5.29669e-031 3.18055e-015 9.54166e-015 -5.0395 -0.09 2.4971 -1.59028e-015 1.59028e-015 2.22639e-014 -3.7921 -1.552 1.4806 2.64834e-031 -1.59028e-015 9.54166e-015 -1.4655 -1.808 0.9609 -8.05554e-007 2.60057e-007 -1.108e-007 -4.9141 -1.269 0.3592 -1.59028e-015 1.59028e-015 2.22639e-014 -3.1477 -1.685 0.8462 2.64834e-031 -1.59028e-015 9.54166e-015 -0.8055 -1.585 0.7955 -8.05554e-007 2.60057e-007 -1.108e-007 8.367 -8.2066 0.5982 18.66 -50.4485 35.5558 2.1923 -43.463 -0.4932 -4.05009 36.8491 2.8781 0.7333 -45.8593 -2.6451 11.2119 56.8487 -13.6029 -8.367 -8.2066 0.5982 -19.4272 -50.893 -36.4283 -2.1923 -43.463 -0.4931 3.95131 37.8882 -2.53598 -0.7333 -45.8593 -2.6451 -11.632 57.5396 14.0061 
0.775072 17.7518 3.98085 178.277 -79.5641 -1.42348 0 -1.186 -1.5018 -0.0796523 -4.37288 -0.286617 -1.11022e-016 9.964 0.2134 -0.182117 -8.7453 -0.581905 -1.11022e-016 13.134 -3.2573 -0.182117 -8.74528 -0.581905 -2.22045e-016 20.686 -1.6905 0.234721 0.720026 -0.0466124 0 7.238 -0.1237 -6.69848e-008 -0.0727882 3.11774e-007 1.7069 20.075 5.0056 13.1812 2.13545 -12.3947 13.6458 -0.047 -4.849 -16.1858 -17.5133 -26.6917 28.3255 -0.9759 2.2888 3.15705 7.02283 -34.975 22.1583 -0.53 10.8316 57.8311 -18.8477 8.56157 0.786 0.112 2.5817 -1.11319e-014 -2.0276e-014 -6.36111e-015 0.3601 -0.878 4.2331 -1.11319e-014 -2.0276e-014 -9.54166e-015 1.8127 -1.216 2.2227 -9.54166e-015 -2.06736e-014 -1.27222e-014 0.9571 1.114 1.7695 -3.18055e-015 -7.95139e-016 -0 4.1246 0.487 4.1451 -1.11319e-014 -2.06736e-014 -9.54166e-015 3.4052 -1.454 2.7682 -1.11319e-014 -1.98785e-014 -6.36111e-015 1.4531 -1.795 1.2713 -1.27222e-014 -2.14687e-014 -6.36111e-015 5.6954 0.21 2.1184 -1.11319e-014 -2.06736e-014 -9.54166e-015 3.9766 -1.54 2.3863 -1.11319e-014 -1.98785e-014 -6.36111e-015 1.4042 -1.926 1.125 -1.27222e-014 -2.14687e-014 -6.36111e-015 2.0956 0.66 -0.3894 -3.18055e-015 -7.95139e-016 -0 5.0395 -0.09 2.4971 -1.11319e-014 -2.06736e-014 -9.54166e-015 3.7921 -1.552 1.4806 -1.11319e-014 -1.98785e-014 -6.36111e-015 1.4655 -1.808 0.9609 -1.27222e-014 -2.14687e-014 -6.36111e-015 4.9141 -1.269 0.3591 -1.11319e-014 -2.06736e-014 -9.54166e-015 3.1477 -1.685 0.8462 -1.11319e-014 -1.98785e-014 -6.36111e-015 0.8055 -1.585 0.7955 -1.27222e-014 -2.14687e-014 -6.36111e-015 -1.7069 20.075 5.0056 20.4315 1.37222 0.165983 -13.6458 -0.047 -4.849 7.59241 8.61215 39.3466 -28.3255 -0.9759 2.2888 -12.6455 -14.9783 12.0224 -22.1583 -0.53 10.8316 -57.4067 -17.7464 -9.74114 -0.786 0.112 2.5817 8.05757e-007 -2.59483e-007 1.10756e-007 -0.3601 -0.878 4.2331 0 0 -3.18055e-015 -1.8127 -1.216 2.2227 8.05757e-007 -2.59483e-007 1.10756e-007 -0.9571 1.114 1.7695 -1.59028e-015 0 -0 -4.1246 0.487 4.1451 8.05757e-007 -2.59483e-007 1.10756e-007 -3.4052 -1.454 2.7682 -0 0 3.18055e-015 -1.4531 -1.795 1.2713 8.05757e-007 -2.59483e-007 1.10756e-007 -5.6954 0.21 2.1184 8.05757e-007 -2.59483e-007 1.10756e-007 -3.9766 -1.54 2.3863 -0 0 3.18055e-015 -1.4042 -1.926 1.125 8.05757e-007 -2.59483e-007 1.10756e-007 -2.0956 0.66 -0.3894 -1.59028e-015 0 -0 -5.0395 -0.09 2.4971 8.05757e-007 -2.59483e-007 1.10756e-007 -3.7921 -1.552 1.4806 -0 0 3.18055e-015 -1.4655 -1.808 0.9609 8.05757e-007 -2.59483e-007 1.10756e-007 -4.9141 -1.269 0.3592 8.05757e-007 -2.59483e-007 1.10756e-007 -3.1477 -1.685 0.8462 -0 0 3.18055e-015 -0.8055 -1.585 0.7955 8.05757e-007 -2.59483e-007 1.10756e-007 8.367 -8.2066 0.5982 16.2673 -47.0661 32.2397 2.1923 -43.463 -0.4932 -4.06096 35.7012 2.84876 0.7333 -45.8593 -2.6451 9.36406 57.0925 -11.7609 -8.367 -8.2066 0.5982 -17.056 -47.6196 -33.0361 -2.1923 -43.463 -0.4931 4.03309 36.9127 -2.55366 -0.7333 -45.8593 -2.6451 -9.66413 57.7077 12.0778 
